<?xml version="1.0" encoding="utf-8"?>
<!-- Generator: Adobe Illustrator 17.0.0, SVG Export Plug-In . SVG Version: 6.00 Build 0)  -->
<!DOCTYPE svg PUBLIC "-//W3C//DTD SVG 1.0//EN" "http://www.w3.org/TR/2001/REC-SVG-20010904/DTD/svg10.dtd">
<svg version="1.0" id="Capa_1" xmlns="http://www.w3.org/2000/svg" xmlns:xlink="http://www.w3.org/1999/xlink" x="0px" y="0px"
	 width="1400px" height="980px" viewBox="0 0 1400 980" enable-background="new 0 0 1400 980" xml:space="preserve">
<rect fill="#FFD89A" width="1406.111" height="980"/>
<g>
	<path fill="#3372A6" d="M842.552,734.14c0,3.845-3.117,6.961-6.961,6.961h-0.527c-3.845,0-6.961-3.117-6.961-6.961V602.702
		c0-3.845,3.117-6.961,6.961-6.961h0.527c3.845,0,6.961,3.117,6.961,6.961V734.14z"/>
	<path fill="#3372A6" d="M419.821,675.261c0,3.845-3.117,6.961-6.961,6.961h-0.527c-3.845,0-6.961-3.117-6.961-6.961V543.823
		c0-3.845,3.117-6.961,6.961-6.961h0.527c3.845,0,6.961,3.117,6.961,6.961V675.261z"/>
	<path fill="#3372A6" d="M594.861,769.501c0,3.845-3.117,6.961-6.961,6.961h-0.527c-3.845,0-6.961-3.117-6.961-6.961V638.063
		c0-3.845,3.117-6.961,6.961-6.961h0.527c3.845,0,6.961,3.117,6.961,6.961V769.501z"/>
	<path fill="#3372A6" d="M634.462,744.139c0,3.845-3.117,6.961-6.961,6.961h-0.527c-3.845,0-6.961-3.117-6.961-6.961V612.701
		c0-3.845,3.117-6.961,6.961-6.961h0.527c3.845,0,6.961,3.117,6.961,6.961V744.139z"/>
	<circle fill="#F47063" cx="700" cy="440.571" r="282.288"/>
	<polyline fill="#3372A6" points="300.232,616.044 700,760.809 1099.768,616.044 	"/>
	<g>
		<polygon fill="#FCFCFB" points="395.062,616.044 700,119.833 700,616.044 		"/>
		<polygon fill="#80AFDC" points="1004.938,616.044 700,119.833 700,616.044 		"/>
	</g>
	<g>
		<polygon fill="#FCFCFB" points="325.199,616.044 489.665,348.416 489.665,616.044 		"/>
		<polygon fill="#80AFDC" points="654.131,616.044 489.665,348.416 489.665,616.044 		"/>
	</g>
	<g>
		<polygon fill="#FCFCFB" points="535.534,616.044 700,348.416 700,616.044 		"/>
		<polygon fill="#80AFDC" points="864.466,616.044 700,348.416 700,616.044 		"/>
	</g>
	<g>
		<polygon fill="#FCFCFB" points="745.869,616.044 910.335,348.416 910.335,616.044 		"/>
		<polygon fill="#80AFDC" points="1074.801,616.044 910.335,348.416 910.335,616.044 		"/>
	</g>
	<g>
		<polygon fill="#FCFCFB" points="300.232,616.044 412.596,433.199 412.596,616.044 		"/>
		<polygon fill="#80AFDC" points="524.96,616.044 412.596,433.199 412.596,616.044 		"/>
	</g>
	<g>
		<polygon fill="#FCFCFB" points="475.272,616.044 587.636,433.199 587.636,616.044 		"/>
		<polygon fill="#80AFDC" points="700,616.044 587.636,433.199 587.636,616.044 		"/>
	</g>
	<g>
		<polygon fill="#FCFCFB" points="875.04,616.044 987.404,433.199 987.404,616.044 		"/>
		<polygon fill="#80AFDC" points="1099.768,616.044 987.404,433.199 987.404,616.044 		"/>
	</g>
	<g>
		<polygon fill="#FCFCFB" points="700,616.044 812.364,433.199 812.364,616.044 		"/>
		<polygon fill="#80AFDC" points="924.728,616.044 812.364,433.199 812.364,616.044 		"/>
	</g>
	<path fill="#3372A6" d="M700,119.833V81.059c0,0,4.711-3.444,10.887,0c6.176,3.444,20.428-2.019,20.428-2.019
		s2.85,11.995-11.995,11.995c-7.23,0-15.835,0-17.577,5.107C700,101.25,700,119.833,700,119.833z"/>
	<path fill="#FCFCFB" d="M351.12,671.459c0,3.845-3.117,6.961-6.961,6.961h-0.527c-3.845,0-6.961-3.117-6.961-6.961v-61.729
		c0-3.845,3.117-6.961,6.961-6.961h0.527c3.845,0,6.961,3.117,6.961,6.961V671.459z"/>
	<path fill="#FCFCFB" d="M351.12,695.388c0,3.845-3.117,6.961-6.961,6.961h-0.527c-3.845,0-6.961-3.117-6.961-6.961v-1.866
		c0-3.845,3.117-6.961,6.961-6.961h0.527c3.845,0,6.961,3.117,6.961,6.961V695.388z"/>
	<path fill="#3372A6" d="M482.497,816.404c0,3.845-3.117,6.961-6.961,6.961h-0.527c-3.845,0-6.961-3.117-6.961-6.961v-1.866
		c0-3.845,3.117-6.961,6.961-6.961h0.527c3.845,0,6.961,3.117,6.961,6.961V816.404z"/>
	<path fill="#3372A6" d="M634.462,769.636c0,3.845-3.117,6.961-6.961,6.961h-0.527c-3.845,0-6.961-3.117-6.961-6.961v-1.866
		c0-3.845,3.117-6.961,6.961-6.961h0.527c3.845,0,6.961,3.117,6.961,6.961V769.636z"/>
	<path fill="#3372A6" d="M707.225,908.039c0,3.845-3.117,6.961-6.961,6.961h-0.527c-3.845,0-6.961-3.117-6.961-6.961v-1.866
		c0-3.845,3.117-6.961,6.961-6.961h0.527c3.845,0,6.961,3.117,6.961,6.961V908.039z"/>
	<path fill="#3372A6" d="M882.265,785.29c0,3.845-3.117,6.961-6.961,6.961h-0.527c-3.845,0-6.961-3.117-6.961-6.961v-1.866
		c0-3.845,3.117-6.961,6.961-6.961h0.527c3.845,0,6.961,3.117,6.961,6.961V785.29z"/>
	<path fill="#80AFDC" d="M454.977,669.354c0,3.845-3.117,6.961-6.961,6.961h-0.527c-3.845,0-6.961-3.117-6.961-6.961v-1.866
		c0-3.845,3.117-6.961,6.961-6.961h0.527c3.845,0,6.961,3.117,6.961,6.961V669.354z"/>
	<path fill="#80AFDC" d="M620.013,651.236c0,3.845-3.117,6.961-6.961,6.961h-0.527c-3.845,0-6.961-3.117-6.961-6.961v-1.866
		c0-3.845,3.117-6.961,6.961-6.961h0.527c3.845,0,6.961,3.117,6.961,6.961V651.236z"/>
	<path fill="#80AFDC" d="M899.931,664.049c0,3.845-3.117,6.961-6.961,6.961h-0.527c-3.845,0-6.961-3.117-6.961-6.961v-1.866
		c0-3.845,3.117-6.961,6.961-6.961h0.527c3.845,0,6.961,3.117,6.961,6.961V664.049z"/>
	<path fill="#80AFDC" d="M1074.801,793.184c0,3.845-3.117,6.961-6.961,6.961h-0.527c-3.845,0-6.961-3.117-6.961-6.961v-1.866
		c0-3.845,3.117-6.961,6.961-6.961h0.527c3.845,0,6.961,3.117,6.961,6.961V793.184z"/>
	<path fill="#FCFCFB" d="M524.96,785.29c0,3.845-3.117,6.961-6.961,6.961h-0.527c-3.845,0-6.961-3.117-6.961-6.961v-1.866
		c0-3.845,3.117-6.961,6.961-6.961h0.527c3.845,0,6.961,3.117,6.961,6.961V785.29z"/>
	<path fill="#FCFCFB" d="M753.094,742.035c0,3.845-3.117,6.961-6.961,6.961h-0.527c-3.845,0-6.961-3.117-6.961-6.961v-1.866
		c0-3.845,3.117-6.961,6.961-6.961h0.527c3.845,0,6.961,3.117,6.961,6.961V742.035z"/>
	<path fill="#FCFCFB" d="M789.458,659.13c0,3.845-3.117,6.961-6.961,6.961h-0.527c-3.845,0-6.961-3.117-6.961-6.961v-1.866
		c0-3.845,3.117-6.961,6.961-6.961h0.527c3.845,0,6.961,3.117,6.961,6.961V659.13z"/>
	<path fill="#FCFCFB" d="M976.94,749.062c0,3.845-3.117,6.961-6.961,6.961h-0.527c-3.845,0-6.961-3.117-6.961-6.961v-1.866
		c0-3.845,3.117-6.961,6.961-6.961h0.527c3.845,0,6.961,3.117,6.961,6.961V749.062z"/>
	<path fill="#80AFDC" d="M454.977,640.407c0,3.845-3.117,6.961-6.961,6.961h-0.527c-3.845,0-6.961-3.117-6.961-6.961v-61.729
		c0-3.845,3.117-6.961,6.961-6.961h0.527c3.845,0,6.961,3.117,6.961,6.961V640.407z"/>
	<path fill="#80AFDC" d="M620.013,626.606c0,3.845-3.117,6.961-6.961,6.961h-0.527c-3.845,0-6.961-3.117-6.961-6.961v-61.729
		c0-3.845,3.117-6.961,6.961-6.961h0.527c3.845,0,6.961,3.117,6.961,6.961V626.606z"/>
	<path fill="#FCFCFB" d="M567.334,671.459c0,3.845-3.117,6.961-6.961,6.961h-0.527c-3.845,0-6.961-3.117-6.961-6.961v-61.729
		c0-3.845,3.117-6.961,6.961-6.961h0.527c3.845,0,6.961,3.117,6.961,6.961V671.459z"/>
	<path fill="#FCFCFB" d="M789.458,633.633c0,3.845-3.117,6.961-6.961,6.961h-0.527c-3.845,0-6.961-3.117-6.961-6.961v-61.729
		c0-3.845,3.117-6.961,6.961-6.961h0.527c3.845,0,6.961,3.117,6.961,6.961V633.633z"/>
	<path fill="#FCFCFB" d="M951.709,674.461c0,3.845-3.117,6.961-6.961,6.961h-0.527c-3.845,0-6.961-3.117-6.961-6.961v-61.729
		c0-3.845,3.117-6.961,6.961-6.961h0.527c3.845,0,6.961,3.117,6.961,6.961V674.461z"/>
	<path fill="#FCFCFB" d="M524.96,741.167c0,3.845-3.117,6.961-6.961,6.961h-0.527c-3.845,0-6.961-3.117-6.961-6.961V609.729
		c0-3.845,3.117-6.961,6.961-6.961h0.527c3.845,0,6.961,3.117,6.961,6.961V741.167z"/>
	<path fill="#3372A6" d="M482.497,788.357c0,3.845-3.117,6.961-6.961,6.961h-0.527c-3.845,0-6.961-3.117-6.961-6.961V656.919
		c0-3.845,3.117-6.961,6.961-6.961h0.527c3.845,0,6.961,3.117,6.961,6.961V788.357z"/>
	<path fill="#3372A6" d="M882.265,760.561c0,3.845-3.117,6.961-6.961,6.961h-0.527c-3.845,0-6.961-3.117-6.961-6.961V629.123
		c0-3.845,3.117-6.961,6.961-6.961h0.527c3.845,0,6.961,3.117,6.961,6.961V760.561z"/>
	<path fill="#3372A6" d="M707.225,878.829c0,3.845-3.117,6.961-6.961,6.961h-0.527c-3.845,0-6.961-3.117-6.961-6.961V747.391
		c0-3.845,3.117-6.961,6.961-6.961h0.527c3.845,0,6.961,3.117,6.961,6.961V878.829z"/>
	<path fill="#3372A6" d="M799.997,826.528c0,3.845-3.117,6.961-6.961,6.961h-0.527c-3.845,0-6.961-3.117-6.961-6.961V695.09
		c0-3.845,3.117-6.961,6.961-6.961h0.527c3.845,0,6.961,3.117,6.961,6.961V826.528z"/>
	<path fill="#80AFDC" d="M657.593,696.821c0,3.845-3.117,6.961-6.961,6.961h-0.527c-3.845,0-6.961-3.117-6.961-6.961V565.383
		c0-3.845,3.117-6.961,6.961-6.961h0.527c3.845,0,6.961,3.117,6.961,6.961V696.821z"/>
	<path fill="#80AFDC" d="M885.482,585.184v54.751c0,3.845,3.117,6.961,6.961,6.961h0.527c3.845,0,6.961-3.117,6.961-6.961v-44.029
		C895.13,592.312,890.309,588.744,885.482,585.184z"/>
	<path fill="#80AFDC" d="M859.694,667.373c0,3.845-3.117,6.961-6.961,6.961h-0.527c-3.845,0-6.961-3.117-6.961-6.961V535.935
		c0-3.845,3.117-6.961,6.961-6.961h0.527c3.845,0,6.961,3.117,6.961,6.961V667.373z"/>
	<path fill="#80AFDC" d="M1074.801,767.236c0,3.845-3.117,6.961-6.961,6.961h-0.527c-3.845,0-6.961-3.117-6.961-6.961V599.572
		c0-3.845,3.117-6.961,6.961-6.961h0.527c3.845,0,6.961,3.117,6.961,6.961V767.236z"/>
	<path fill="#80AFDC" d="M1029.905,681.763c0,3.845-3.117,6.961-6.961,6.961h-0.527c-3.845,0-6.961-3.117-6.961-6.961V550.325
		c0-3.845,3.117-6.961,6.961-6.961h0.527c3.845,0,6.961,3.117,6.961,6.961V681.763z"/>
	<path fill="#FCFCFB" d="M976.94,723.916c0,3.845-3.117,6.961-6.961,6.961h-0.527c-3.845,0-6.961-3.117-6.961-6.961V592.478
		c0-3.845,3.117-6.961,6.961-6.961h0.527c3.845,0,6.961,3.117,6.961,6.961V723.916z"/>
	<path fill="#FCFCFB" d="M753.024,715.676c0,3.845-3.117,6.961-6.961,6.961h-0.527c-3.845,0-6.961-3.117-6.961-6.961V584.238
		c0-3.845,3.117-6.961,6.961-6.961h0.527c3.845,0,6.961,3.117,6.961,6.961V715.676z"/>
	<path fill="#FCFCFB" d="M395.062,626.606c0,3.845-3.117,6.961-6.961,6.961h-0.527c-3.845,0-6.961-3.117-6.961-6.961v-61.729
		c0-3.845,3.117-6.961,6.961-6.961h0.527c3.845,0,6.961,3.117,6.961,6.961V626.606z"/>
	<path fill="#FFD89A" d="M604.069,321.435H554.34c-3.21,0-5.813-2.603-5.813-5.813c0-3.21,2.603-5.813,5.813-5.813h5.813
		c4.816,0,8.719-3.904,8.719-8.72c0-4.816-3.904-8.719-8.719-8.719H415.284c-4.816,0-8.719,3.904-8.719,8.719
		c0,4.816,3.904,8.72,8.719,8.72h51.876c3.21,0,5.813,2.603,5.813,5.813c0,3.21-2.603,5.813-5.813,5.813h-85.947
		c-4.816,0-8.719,3.904-8.719,8.719c0,4.816,3.904,8.719,8.719,8.719h222.856c4.816,0,8.719-3.904,8.719-8.719
		C612.788,325.338,608.884,321.435,604.069,321.435z"/>
	<path fill="#FFD89A" d="M788.503,281.597h222.856c4.816,0,8.719-3.904,8.719-8.719c0-4.816-3.904-8.72-8.719-8.72H961.63
		c-3.21,0-5.813-2.602-5.813-5.813c0-3.21,2.602-5.813,5.813-5.813l0,0h5.813c4.816,0,8.72-3.904,8.72-8.719
		c0-4.816-3.904-8.719-8.72-8.719H822.574c-4.816,0-8.719,3.904-8.719,8.719c0,4.816,3.904,8.719,8.719,8.719h51.886l-0.01,0
		c3.21,0,5.813,2.602,5.813,5.813c0,3.21-2.603,5.813-5.813,5.813h-85.947c-4.816,0-8.72,3.904-8.72,8.72
		C779.784,277.693,783.688,281.597,788.503,281.597z"/>
	<path fill="#F47063" d="M530.837,158.283H378.456c-3.293,0-5.962,2.669-5.962,5.962c0,3.293,2.669,5.962,5.962,5.962h34.003
		c2.195,0,3.975,1.779,3.975,3.975s-1.779,3.975-3.975,3.975l0,0h-3.975c-3.293,0-5.962,2.669-5.962,5.962s2.669,5.962,5.962,5.962
		h99.056c3.293,0,5.962-2.669,5.962-5.962s-2.669-5.962-5.962-5.962h-35.478l0.007,0c-2.195,0-3.975-1.779-3.975-3.975
		s1.78-3.975,3.975-3.975h58.767c3.293,0,5.962-2.669,5.962-5.962C536.799,160.953,534.129,158.283,530.837,158.283z"/>
	<path fill="#F47063" d="M793.692,134.801h123.845c3.1,0,5.613-2.513,5.613-5.613s-2.513-5.613-5.613-5.613l-7.612,0
		c-2.067,0-3.742-1.675-3.742-3.742s1.675-3.742,3.742-3.742h-0.003h0.003h32.014c3.1,0,5.613-2.513,5.613-5.613
		c0-3.1-2.513-5.613-5.613-5.613H808.273c-3.1,0-5.613,2.513-5.613,5.613c0,3.1,2.513,5.613,5.613,5.613h15.49h0.01h-0.455
		c2.067,0,3.742,1.675,3.742,3.742s-1.675,3.742-3.742,3.742l-29.625,0c-3.1,0-5.613,2.513-5.613,5.613
		S790.592,134.801,793.692,134.801z"/>
</g>
</svg>
